# xmcd
#
# Track frame offsets:
#      183
#      14920
#      27920
#      43270
#      57108
#      71245
#      85658
#      99433
#      111858
#      129370
#      152345
#      164245
#      175708
#      189970
#      203720
#      216720
#      230720
#      243508
#      256333
#      269820
# 
# Disc length: 3835 seconds
#
# Revision: 5
# Processed by: cddbd v1.5.1PL0 Copyright (c) Steve Scherf et al.
#
# Submitted via: FreeRIP 1.21
#
DISCID=290ef914
DTITLE=Various Artist - The Real Blues Ballads - vol 1
DYEAR=2001
DGENRE=Blues
TTITLE0=Etta James - W.O.M.A.N.
TTITLE1=Howlin' Wolf - I'm The Wolf
TTITLE2=Sonny Boy Williamson - Cross My Heart
TTITLE3=Little Walter - Confessin' The Blues
TTITLE4=Bo Diddley - Oh Yeah
TTITLE5=Buddy Guy - Broken Hearted Blues
TTITLE6=Little Milton - Hard Luck Blues
TTITLE7=John Lee Hooker - I'm In The Mood
TTITLE8=Howlin' Wolf - Sittin' On Top Of The World
TTITLE9=Muddy Waters - Who's Gonna Be Your Sweet Man When I'm Gone
TTITLE10=Jimmy McCracklin - Later On
TTITLE11=Paul Gayten - Mother Roux
TTITLE12=J.B. Lenoir - Don't Dog Your Woman
TTITLE13=Lowell Fulson - Loving You
TTITLE14=Jimmy Rogers - This Has Never Been
TTITLE15=Koko Taylor - I Got What It Takes
TTITLE16=Muddy Waters - Train Fare Home Blues
TTITLE17=Big Bill Broonzy - Lonesome
TTITLE18=Bo Diddley - The Clock Strikes Twelve
TTITLE19=John Lee Hooker - Wednesday Evening Blues
EXTD=
EXTT0=
EXTT1=
EXTT2=
EXTT3=
EXTT4=
EXTT5=
EXTT6=
EXTT7=
EXTT8=
EXTT9=
EXTT10=
EXTT11=
EXTT12=
EXTT13=
EXTT14=
EXTT15=
EXTT16=
EXTT17=
EXTT18=
EXTT19=
PLAYORDER=
